<svg xmlns="http://www.w3.org/2000/svg" viewBox="0 0 512 512" width="512" height="512"><defs><linearGradient id="weather-bg" x1="0" y1="0" x2="1" y2="1"><stop offset="0" stop-color="#a5b4fc"/><stop offset="1" stop-color="#312e81"/></linearGradient><radialGradient id="weather-hl" cx="0.22" cy="0.15" r="0.85"><stop offset="0" stop-color="#fff" stop-opacity="0.3"/><stop offset="1" stop-color="#fff" stop-opacity="0"/></radialGradient></defs><rect width="512" height="512" rx="116" fill="url(#weather-bg)"/><rect width="512" height="512" rx="116" fill="url(#weather-hl)"/><g transform="translate(0 0) scale(1)"><ellipse cx="256" cy="256" rx="218" ry="78" transform="rotate(-24 256 256)" fill="none" stroke="#fff" stroke-opacity="0.5" stroke-width="18"/><circle cx="256" cy="256" r="142" fill="#fff"/><ellipse cx="256" cy="256" rx="218" ry="78" transform="rotate(-24 256 256)" fill="none" stroke="#fff" stroke-width="18" stroke-dasharray="0 330 420 2000" stroke-linecap="round"/><circle cx="438" cy="152" r="24" fill="#fff"/><g transform="translate(158 158) scale(1.53125)"><circle cx="78" cy="46" r="22" fill="#f59e0b"/><path d="M34 98 H86 A18 18 0 0 0 86 62 A26 26 0 0 0 38 64 A17 17 0 0 0 34 98 Z" fill="#4338ca"/></g></g></svg>